# xmcd CD database file
#
# Track frame offsets:
#	150
#	12325
#	25470
#	38227
#	50595
#	64772
#	77225
#	90022
#	104315
#	117997
#	129442
#	142290
#	155325
#	165627
#	178755
#	191062
#	202117
#	213717
#	227825
#	239120
#	252975
#	265130
#	278547
#	293022
#	303380
#
# Disc length: 4214 seconds
#
# Revision: 2
# Processed by: cddbd v1.5.2PL0 Copyright (c) Steve Scherf et al.
# Submitted via: CDex 1.70beta2
#
DISCID=73107419
DTITLE=Various Artist - The Blues: A Musical Journey [CD3]
DYEAR=2003
DGENRE=Blues
TTITLE0=Memphis Slim - Mother Earth
TTITLE1=Percy Mayfield - Please Send Me Someone To Love
TTITLE2=Jackie Brenston - Rocket 88
TTITLE3=Elmore James - Dust My Broom
TTITLE4=Rosco Gordon - No More Doggin'
TTITLE5=Little Walter - Juke
TTITLE6=Big Mama Thornton - Hound Dog
TTITLE7=Lowell Fulson - Reconsider Baby
TTITLE8=Guitar Slim - The Things That I Used To Do
TTITLE9=Professor Longhair - In The Night
TTITLE10=Muddy Waters - (I'm Your) Hoochie Coochie Man
TTITLE11=J.B. Lenoir - Eisenhower Blues
TTITLE12=Fats Domino - Blue Monday
TTITLE13=Ray Charles - Hard Times
TTITLE14=Smiley Lewis - I Hear You Knockin'
TTITLE15=Elvis Presley - Mystery Train
TTITLE16=Sonny Boy Williamson II - Don't Start Me To Talkin'
TTITLE17=Howlin' Wolf - Smokestack Lightnin'
TTITLE18=Bo Diddley - Who Do You Love?
TTITLE19=Slim Harpo - I'm A King Bee
TTITLE20=Chuck Berry - Johnny B. Goode
TTITLE21=Bobby "Blue" Bland - Farther Up The Road
TTITLE22=Otis Rush - So Many Roads, So Many Trains
TTITLE23=Buddy Guy - First Time I Met The Blues
TTITLE24=Jimmy Reed - Big Boss Man
EXTD=YEAR: 2003
EXTT0=
EXTT1=
EXTT2=
EXTT3=
EXTT4=
EXTT5=
EXTT6=
EXTT7=
EXTT8=
EXTT9=
EXTT10=
EXTT11=
EXTT12=
EXTT13=
EXTT14=
EXTT15=
EXTT16=
EXTT17=
EXTT18=
EXTT19=
EXTT20=
EXTT21=
EXTT22=
EXTT23=
EXTT24=
PLAYORDER=
